<svg width="183" height="181" viewBox="0 0 183 181" fill="none" xmlns="http://www.w3.org/2000/svg">
<rect y="50.5704" width="128.971" height="130.046" rx="64.4857" fill="url(#paint0_linear_41_191)"/>
<path fill-rule="evenodd" clip-rule="evenodd" d="M29.1798 115.486C47.9882 107.318 60.5091 101.89 66.7965 99.2571C84.6913 91.7875 88.453 90.4978 90.8712 90.4441C91.4086 90.4441 92.5908 90.5516 93.3969 91.1964C94.0417 91.7338 94.2029 92.4324 94.3104 92.9698C94.4179 93.5072 94.5254 94.6357 94.4179 95.4955C93.4506 105.706 89.259 130.479 87.1095 141.871C86.196 146.708 84.4226 148.32 82.703 148.481C78.9413 148.804 76.0932 146.009 72.4927 143.645C66.7965 139.937 63.626 137.626 58.0909 133.972C51.6961 129.78 55.8339 127.47 59.4881 123.708C60.4554 122.741 76.953 107.694 77.2754 106.351C77.3292 106.189 77.3292 105.545 76.953 105.222C76.5768 104.9 76.0395 105.007 75.6096 105.115C75.0184 105.222 65.9904 111.241 48.4181 123.117C45.8386 124.89 43.5279 125.75 41.4321 125.696C39.1214 125.643 34.7148 124.407 31.3831 123.332C27.3527 122.042 24.1284 121.344 24.3971 119.087C24.5583 117.904 26.1705 116.722 29.1798 115.486Z" fill="white"/>
<g filter="url(#filter0_d_41_191)">
<rect x="89.4673" y="11" width="78.5328" height="79.1872" rx="39.2664" fill="#007AFF"/>
<rect x="87.4673" y="9" width="82.5328" height="83.1872" rx="41.2664" stroke="white" stroke-width="4"/>
<path fill-rule="evenodd" clip-rule="evenodd" d="M154.012 46.6863L152.593 48.3497C145.459 56.7133 140.302 62.7579 128.863 76.1666L109.792 53.8104H116.048C120.32 58.8178 124.591 63.8256 128.863 68.8323C133.81 63.0339 138.758 57.235 143.704 51.4357H133.631V46.6863C140.425 46.6863 147.219 46.6863 154.012 46.6863ZM114.488 32.4375C110.844 37.1249 107.2 41.813 103.556 46.5003L103.714 46.6863C105.065 48.2693 106.416 49.8524 107.766 51.4357H124.096V46.6863C119.211 46.6863 114.326 46.6863 109.442 46.6863C111.903 43.5198 114.364 40.3534 116.825 37.187C123.846 37.187 130.866 37.187 137.886 37.187H140.901L146.439 44.3115C148.449 44.3115 150.459 44.3115 152.468 44.3115C149.392 40.3534 146.316 36.3955 143.239 32.4375C133.655 32.4375 124.072 32.4375 114.488 32.4375Z" fill="white"/>
<path d="M131.369 44.3433H143.501L139.822 39.5854H118.166L114.488 44.3433H126.619V62.4354L128.994 65.2343L131.369 62.4354V44.3433Z" fill="white"/>
</g>
<defs>
<filter id="filter0_d_41_191" x="54.4654" y="0.11069" width="127.869" height="128.523" filterUnits="userSpaceOnUse" color-interpolation-filters="sRGB">
<feFlood flood-opacity="0" result="BackgroundImageFix"/>
<feColorMatrix in="SourceAlpha" type="matrix" values="0 0 0 0 0 0 0 0 0 0 0 0 0 0 0 0 0 0 127 0" result="hardAlpha"/>
<feOffset dx="-10.334" dy="13.7786"/>
<feGaussianBlur stdDeviation="10.334"/>
<feComposite in2="hardAlpha" operator="out"/>
<feColorMatrix type="matrix" values="0 0 0 0 0 0 0 0 0 0.062762 0 0 0 0 0.131183 0 0 0 0.08 0"/>
<feBlend mode="normal" in2="BackgroundImageFix" result="effect1_dropShadow_41_191"/>
<feBlend mode="normal" in="SourceGraphic" in2="effect1_dropShadow_41_191" result="shape"/>
</filter>
<linearGradient id="paint0_linear_41_191" x1="4.5" y1="122.5" x2="180.5" y2="-39.5" gradientUnits="userSpaceOnUse">
<stop stop-color="#5C90C2"/>
<stop offset="1" stop-color="#007AFF"/>
</linearGradient>
</defs>
</svg>
